PathFileType	4	(X/Y/Z)	\\147.46.242.158\로컬 디스크 (e)\MOCAP Data\Iguana Capture\iguana\Project 2\Capture day 6 after broken\Session 2\Take05 good walk.trc
DataRate	CameraRate	NumFrames	NumMarkers	Units	OrigDataRate	OrigDataStartFrame	OrigNumFrames
120.0	120.0	5	23	mm	120.0	351	5093
Frame#	Time	ana:head1			ana:head2			ana:bone1			ana:bone2			ana:bone3			ana:tail1			ana:tail2			ana:tail3			ana:tail4			ana:Rforefoot1			ana:Rforefoot2			ana:Rforefoot3			ana:Lforefoot1			ana:Lforefoot2			ana:Lforefoot3			ana:RhindLeg1			ana:RhindLeg2			ana:RhindLeg3			ana:RhindLeg4			ana:LhindLeg1			ana:LhindLeg2			ana:LhindLeg3			ana:LhindLeg4			
		X1	Y1	Z1	X2	Y2	Z2	X3	Y3	Z3	X4	Y4	Z4	X5	Y5	Z5	X6	Y6	Z6	X7	Y7	Z7	X8	Y8	Z8	X9	Y9	Z9	X10	Y10	Z10	X11	Y11	Z11	X12	Y12	Z12	X13	Y13	Z13	X14	Y14	Z14	X15	Y15	Z15	X16	Y16	Z16	X17	Y17	Z17	X18	Y18	Z18	X19	Y19	Z19	X20	Y20	Z20	X21	Y21	Z21	X22	Y22	Z22	X23	Y23	Z23	

4350	36.242	-473.21097	-241.07626	52.21059	-469.72375	-230.62886	52.04627	-465.35837	-210.23030	46.62109	-459.32700	-183.74898	45.89976	-454.92313	-146.98123	39.28967	-453.49139	-114.70183	31.67218	-451.45197	-81.58061	22.83023	-442.64264	-38.12734	13.27858	-435.75238	-5.18031	10.84723	-476.33173	-207.32588	32.79469	-480.69730	-191.84541	32.16615	-477.74130	-183.48062	15.46315	-455.56522	-222.10678	34.12132	-442.43698	-218.37378	22.02109	-451.57526	-232.29665	14.92341	-465.29568	-146.17677	30.89930	-479.76651	-149.16068	24.59889	-475.30655	-138.07785	9.40000	-480.93652	-149.27570	8.17636	-444.56323	-145.53699	33.41331	-429.60550	-138.34598	29.14879	-421.48538	-120.84492	25.52667	-415.33160	-117.32166	13.63681	
4351	36.250	-473.34811	-241.99338	52.30108	-469.89319	-231.58730	52.18592	-465.58975	-211.12300	46.70999	-459.81992	-184.60271	45.95203	-455.33069	-147.82715	39.29485	-453.54816	-115.56971	31.70952	-451.43130	-82.45756	22.86566	-442.71152	-38.99791	13.31104	-435.91589	-6.03623	10.82902	-476.58359	-208.75049	33.11008	-481.49088	-193.45337	32.93314	-479.66144	-185.36690	15.92284	-455.53894	-222.48145	33.91176	-442.50891	-218.59570	22.13627	-451.61349	-232.86430	15.24733	-465.60324	-146.81125	30.84278	-480.10123	-149.24640	24.43741	-475.33414	-138.07578	9.43535	-480.91159	-149.27769	8.20822	-444.92172	-146.48749	33.45669	-429.90332	-139.42245	29.21061	-421.54837	-121.94328	25.57456	-415.35138	-117.91641	13.64768	
4352	36.258	-473.45184	-242.91295	52.37994	-470.03897	-232.55162	52.33513	-465.80621	-212.02094	46.79395	-460.31979	-185.46532	46.00237	-455.75690	-148.67795	39.28570	-453.62628	-116.44800	31.73791	-451.42844	-83.34235	22.88910	-442.78763	-39.87707	13.33909	-436.08389	-6.90634	10.81618	-476.81226	-210.18533	33.42546	-482.29532	-195.14696	33.66036	-481.72302	-187.54916	16.35326	-455.45813	-222.74155	33.61297	-442.58643	-218.80167	22.22500	-451.63953	-233.42570	15.55599	-465.92465	-147.45236	30.78074	-480.42612	-149.32483	24.27057	-475.34537	-138.07590	9.46558	-480.88901	-149.26862	8.23105	-445.30850	-147.44020	33.48402	-430.22580	-140.49287	29.25280	-421.62302	-123.04385	25.60213	-415.39313	-118.57007	13.70900	
4353	36.267	-473.51874	-243.83319	52.44308	-470.15320	-233.51549	52.48222	-466.00363	-212.92307	46.86870	-460.82095	-186.33456	46.04462	-456.19513	-149.53174	39.25942	-453.71985	-117.33560	31.75062	-451.44089	-84.23559	22.89170	-442.87381	-40.76350	13.35801	-436.25775	-7.78878	10.81082	-477.01172	-211.61978	33.73088	-483.10049	-196.91623	34.33325	-483.88559	-190.03149	16.75769	-455.33093	-222.91002	33.23970	-442.66052	-218.98199	22.28001	-451.65359	-233.98097	15.84971	-466.25549	-148.09883	30.70966	-480.73706	-149.39661	24.09368	-475.34259	-138.07582	9.48582	-480.87317	-149.24786	8.24309	-445.71976	-148.39520	33.49127	-430.56619	-141.56104	29.27823	-421.71124	-124.15382	25.61984	-415.47577	-119.27413	13.82036	
4354	36.275	-473.54648	-244.75294	52.48822	-470.22897	-234.47324	52.61599	-466.17810	-213.82852	46.93077	-461.31708	-187.20815	46.07318	-456.63812	-150.38731	39.21414	-453.82199	-118.23178	31.74160	-451.46481	-85.13860	22.86517	-442.97247	-41.65652	13.36339	-436.43906	-8.68183	10.81444	-477.17630	-213.04428	34.01591	-483.89606	-198.74881	34.93783	-486.09637	-192.80659	17.14470	-455.16751	-223.01762	32.81386	-442.72263	-219.13177	22.29967	-451.65594	-234.53024	16.12880	-466.59027	-148.74974	30.62669	-481.02966	-149.46307	23.90401	-475.32880	-138.07423	9.49292	-480.86673	-149.21660	8.24423	-446.15012	-149.35382	33.47582	-430.91599	-142.63499	29.29315	-421.82132	-125.28083	25.63923	-415.61832	-120.02013	13.98137	
